<?xml version="1.0" encoding="utf-8"?>
<!-- Generator: Adobe Illustrator 25.2.0, SVG Export Plug-In . SVG Version: 6.00 Build 0)  -->
<svg version="1.1" id="Layer_1" xmlns="http://www.w3.org/2000/svg" xmlns:xlink="http://www.w3.org/1999/xlink" x="0px" y="0px"
	 viewBox="0 0 290.4 258.3" style="enable-background:new 0 0 290.4 258.3;" xml:space="preserve">
<style type="text/css">
	.st0{fill:#585858;}
	.st1{fill:#E84C43;}
	.st2{fill:#5B5B5B;}
	.st3{fill:#D3362D;}
	.st4{fill:#E24434;}
	.st5{fill:#FFFFFF;}
	.st6{fill:#CC0000;}
	.st7{fill:#FBEEF2;}
	.st8{fill:#F884AA;}
</style>
<g>
	<g>
		<path class="st0" d="M36.6,128.1c2.7,0.2,8.4,0.2,12.8,0.1c0.3-0.2,0.6-0.5,0.9-0.7c2.2-1.7,4-4.6,5.7-8l-3.8-6.2
			c0,0-18.5-1.2-22.3,6.3C27,125.1,33.3,127.8,36.6,128.1z"/>
		<path class="st0" d="M205.8,127.5c0.3,0.2,0.6,0.5,0.9,0.7c4.4,0,9.8,0.1,12.4-0.1c3.3-0.2,9.6-3,6.8-8.5
			c-3.8-7.5-22.3-6.3-22.3-6.3l-3.6,5.9C201.7,122.8,203.6,125.7,205.8,127.5z"/>
		<path class="st0" d="M31.6,223.7c0,2.4,2,4.4,4.4,4.4h19.6c2.4,0,4.4-2,4.4-4.4v-13H31.6V223.7z"/>
		<path class="st0" d="M195,223.7c0,2.4,2,4.4,4.4,4.4H219c2.4,0,4.4-2,4.4-4.4v-13H195V223.7z"/>
		<path class="st0" d="M45.8,154.9c-3.5,0-6.4,2.9-6.4,6.4c0,3.5,2.9,6.4,6.4,6.4c3.5,0,6.4-2.9,6.4-6.4
			C52.2,157.8,49.3,154.9,45.8,154.9z M46.6,166.1c-0.5-0.8-0.8-1.8-0.8-2.8c0-2.4,1.5-4.4,3.6-5.2c0.8,0.9,1.3,2,1.3,3.3
			C50.7,163.7,48.9,165.7,46.6,166.1z"/>
		<path class="st0" d="M60.8,156.7c-3,0-5.5,2.4-5.5,5.5c0,3,2.4,5.5,5.5,5.5c3,0,5.5-2.4,5.5-5.5C66.3,159.2,63.8,156.7,60.8,156.7
			z M61.5,166.3c-0.4-0.7-0.7-1.5-0.7-2.4c0-2,1.3-3.8,3.1-4.5c0.7,0.7,1.1,1.7,1.1,2.8C65,164.3,63.5,166,61.5,166.3z"/>
		<path class="st0" d="M210,154.9c-3.5,0-6.4,2.9-6.4,6.4c0,3.5,2.9,6.4,6.4,6.4c3.5,0,6.4-2.9,6.4-6.4
			C216.4,157.8,213.5,154.9,210,154.9z M209.2,166.1c-2.3-0.4-4.1-2.4-4.1-4.8c0-1.3,0.5-2.4,1.3-3.3c2.1,0.8,3.6,2.9,3.6,5.2
			C210,164.3,209.7,165.3,209.2,166.1z"/>
		<path class="st0" d="M195,156.7c-3,0-5.5,2.4-5.5,5.5c0,3,2.4,5.5,5.5,5.5c3,0,5.5-2.4,5.5-5.5C200.5,159.2,198,156.7,195,156.7z
			 M194.3,166.3c-2-0.3-3.5-2-3.5-4.1c0-1.1,0.4-2.1,1.1-2.8c1.8,0.7,3.1,2.4,3.1,4.5C195,164.8,194.8,165.6,194.3,166.3z"/>
		<path class="st0" d="M228.4,160.9c-1.2-12.1-8.6-18.6-24-31c-5-4.1-8.2-12.5-11.6-21.4c-1.5-3.9-3-7.9-4.6-11.5
			c-3.7-8-9.1-12-16.4-12.5c-6.5-0.4-23.1-0.7-43.2-0.7c-20.1,0-36.6,0.3-43.2,0.7c-7.4,0.4-12.8,4.5-16.4,12.5
			c-1.7,3.6-3.2,7.6-4.6,11.4c-3.4,8.9-6.5,17.3-11.6,21.4c-15.4,12.4-22.8,18.9-24,31c-1.7,17.7-0.5,40.7-0.1,46.6h147.2h8.2h45
			v-39.3C228.8,165.7,228.6,163.3,228.4,160.9z M71.7,102.2c2.1-5.2,4.9-11.5,14.1-12.9c2.4-0.4,22.2-0.7,42.3-0.7
			c20.1,0,39.8,0.3,42.3,0.7c9.2,1.5,12,7.7,14.1,12.9c4.2,10.6,5.3,19.2,6.6,23.5H65C66.4,121.4,67.4,112.8,71.7,102.2z
			 M133.9,148.2c0,1.4-2.6,2.5-5.7,2.5c-3.2,0-5.7-1.1-5.7-2.5s2.6-2.5,5.7-2.5C131.3,145.7,133.9,146.8,133.9,148.2z M73.9,197.1
			c0,2.6-1.9,3.8-4.2,3.8c-7.4,0-23.1,0-28.6,0c-2.7,0-4.3-1.2-4.3-3.7c0-4.7-2.2-16.5,8.9-16.4c7.7,0.1,15.2,0,22.6,0
			c3.2,0,5.7,2.2,5.7,5.5C74.1,189.7,73.9,192.6,73.9,197.1z M76.1,170.7c-9.8,0.5-24.7,0-34.2,0c-2.8,0-8.9,0-6.9-9.5
			c1.7-7.9,3.2-10,7.4-10.2c8.3-0.5,21.6-1,28.3,4.4C77.3,160.8,85.9,170.2,76.1,170.7z M150.7,198.2h-45.3v-10.8h45.3V198.2z
			 M164.2,173c-4.7,4.4-20.7,5-35.8,5v0c-0.1,0-0.1,0-0.2,0c-0.1,0-0.1,0-0.2,0v0c-15.1,0-31.1-0.7-35.8-5c-8.8-8.2-3.3-14.6,1-14.5
			c6.5,0.1,21.2,0,34.7,0v0c0.1,0,0.1,0,0.2,0c0.1,0,0.1,0,0.2,0v0c13.5,0,28.3,0.1,34.7,0C167.6,158.4,173,164.8,164.2,173z
			 M220.4,168.6c-13.3,0.7-36.3,2.3-40.3,2.1c-9.8-0.5-1.2-9.9,5.4-15.3c6.6-5.4,19.9-4.9,28.3-4.4c4.2,0.2,5.7,2.3,7.4,10.2
			C222,165,221.5,167.2,220.4,168.6z"/>
	</g>
	<path class="st5" d="M215.9,201l-27.8,0c0,0-3.6,0.2-4.4-3.4l0-10.1c0,0-1-6.6,5.7-6.6l22.6,0c0,0,7.1-0.5,8.5,5.9
		c0,0,0.9,3.4,0.4,9.2C221.1,196,222.2,201,215.9,201z"/>
</g>
<g>
	<circle class="st5" cx="204.6" cy="107.9" r="65.5"/>
	<circle class="st0" cx="204.6" cy="107.9" r="72.5"/>
	<circle class="st5" cx="204.6" cy="107.9" r="61.2"/>
	<path class="st6" d="M245.9,130.9l-19.1-34l-19.1-34c-1.4-2.4-4.8-2.4-6.1,0l-19.1,34l-19.1,34c-1.4,2.4,0.3,5.5,3.1,5.5h38.3h38.3
		C245.6,136.4,247.3,133.3,245.9,130.9z M208.3,76.7l-1.1,37.4h-5.3l-1.1-37.4H208.3z M204.6,130.1c-2.7,0-4.6-2.1-4.6-4.8
		c0-2.8,1.9-4.8,4.6-4.8c2.8,0,4.6,2,4.6,4.8C209.2,128,207.4,130.1,204.6,130.1z"/>
</g>
</svg>
