<svg width="64" height="54" viewBox="0 0 64 54" fill="none" xmlns="http://www.w3.org/2000/svg">
<path d="M39.889 9.78763C39.1006 13.2996 38.7902 14.9128 38.15 17.4556C37.5357 19.896 37.0601 22.1598 36.2371 23.2577C35.4019 24.3714 34.2881 24.6141 33.5294 24.6998C33.1365 24.7436 32.8502 24.7636 31.9997 24.7666C31.149 24.7633 30.862 24.7436 30.47 24.6998C29.7113 24.6144 28.597 24.372 27.7621 23.2577C26.9396 22.1598 26.4637 19.8955 25.8489 17.4556C25.209 14.9125 24.8979 13.2994 24.1102 9.78763C24.1102 9.78763 23.3241 9.81814 22.9761 9.84309C22.5044 9.87665 22.1373 9.91686 21.7361 9.97011C21.7361 9.97011 22.1884 17.1924 22.3931 20.2524C22.6085 23.471 22.9864 28.8943 23.3416 32.9895C23.3416 32.9895 24.0014 33.0943 25.0974 33.1559C26.2504 33.2219 26.7623 33.2291 26.7623 33.2291C27.2365 31.4265 27.8231 28.9214 28.4891 27.8538C29.0304 26.9855 29.8642 26.8934 30.3371 26.8277C31.0799 26.7264 31.7061 26.7112 31.9964 26.7203H32.0022C32.2924 26.7106 32.9179 26.7264 33.6618 26.8277C34.1335 26.8923 34.9684 26.9844 35.5098 27.8538C36.1757 28.9214 36.7623 31.4251 37.2371 33.2291C37.2371 33.2291 37.7496 33.2216 38.902 33.1559C39.9977 33.0929 40.6579 32.9895 40.6579 32.9895C41.0127 28.8943 41.3909 23.4715 41.6068 20.2524C41.8116 17.1924 42.2633 9.97011 42.2633 9.97011C41.8624 9.91686 41.4942 9.87721 41.0233 9.84309C40.6739 9.81897 39.8881 9.78763 39.8881 9.78763H39.889Z" fill="#CC0000"/>
<path d="M48.9935 14.0515C48.5274 9.46428 45.4654 8.49559 42.778 8.04495C41.4231 7.81782 39.0163 7.62563 37.4732 7.5624C36.1247 7.47616 32.9442 7.4329 32 7.43262C31.0557 7.43234 27.8755 7.47616 26.5273 7.5624C24.9842 7.62563 22.5774 7.81782 21.2227 8.04495C18.5342 8.49559 15.4717 9.46428 15.0053 14.0515C14.8782 15.3008 14.8419 16.9312 14.8649 18.6869C14.9032 21.5935 15.1529 23.5564 15.2961 24.9153C15.3943 25.8479 15.7842 28.6513 16.2847 30.1012C16.9723 32.094 17.5905 32.6744 18.3184 33.2671C19.6503 34.3517 21.8407 34.6853 22.3077 34.7691C24.7822 35.2128 29.7896 35.294 32.0003 35.291C34.2112 35.294 39.2194 35.2139 41.6928 34.7691C42.1604 34.6859 44.3516 34.3517 45.6824 33.2671C46.4102 32.6744 47.0285 32.094 47.716 30.1012C48.2155 28.6511 48.6059 25.8476 48.7047 24.9153C48.8476 23.5564 49.0976 21.5935 49.1353 18.6869C49.1589 16.9312 49.1223 15.3002 48.9947 14.0515H48.9935ZM47.312 21.756C47.0401 25.4203 46.7141 27.6178 46.2479 29.2018C45.8384 30.5884 45.3322 31.5213 44.5903 32.1914C43.3535 33.3095 41.649 33.5502 40.6501 33.6983C38.491 34.0183 34.8555 34.1296 31.998 34.1307C29.1406 34.1318 25.505 34.0197 23.346 33.6983C22.3471 33.5497 20.6442 33.3101 19.4075 32.1914C18.6663 31.5213 18.1588 30.5887 17.7498 29.2018C17.2834 27.618 16.9571 25.4203 16.6857 21.756C16.522 19.5474 16.5567 15.9686 16.8025 14.0465C17.1685 11.1787 18.5931 9.73411 21.6462 9.19028C23.071 8.93653 24.9862 8.75655 26.8034 8.66698C28.2607 8.56881 30.6603 8.51916 31.998 8.53192C33.3374 8.51916 35.7359 8.56881 37.1927 8.66698C39.0102 8.75683 40.9253 8.93681 42.3499 9.19028C45.4022 9.73411 46.8278 11.1781 47.1947 14.0462C47.4411 15.9694 47.4741 19.5483 47.312 21.756Z" fill="#CC0000"/>
<path d="M50.2965 46.313V45.3424L51.2785 45.2315C51.6198 45.1879 51.7618 44.8771 51.8057 44.8066L54.2533 40.824C54.4528 40.5115 54.2577 40.2364 54.0019 40.207L52.7158 40.0564V39.0755H58.295C58.6075 39.0755 58.8067 39.2882 58.9363 39.4729L62.1933 44.4492C62.4497 44.8471 62.6481 45.1608 62.975 45.2026L64 45.3177V46.3128H57.724V45.331L58.5218 45.2312C58.9061 45.1888 59.2185 45.0191 58.9061 44.549L58.6067 44.0936H54.1517L53.8107 44.6483C53.5971 44.9894 53.8107 45.1885 54.1376 45.2307L54.9345 45.3305V46.3125L50.2965 46.313ZM54.9495 42.813H57.7662L56.3444 40.5805L54.9495 42.813Z" fill="#CC0000"/>
<path d="M46.1412 39.0738H38.964V40.0547L39.8627 40.1468C40.1996 40.197 40.3345 40.4383 40.3345 40.7647V44.6633C40.3345 44.9339 40.2204 45.1902 39.9213 45.2312L38.9593 45.3571V46.31L46.1412 46.313C49.4432 46.313 50.865 44.706 50.865 42.5864C50.865 40.6801 49.4421 39.0738 46.1412 39.0738ZM45.0313 44.9187H43.1819V40.4521H45.0313C46.7964 40.4521 47.537 40.8656 47.537 42.6868C47.537 44.521 46.7964 44.9187 45.0313 44.9187Z" fill="#CC0000"/>
<path d="M0 46.313H5.80622V45.3446L4.8098 45.2312C4.58227 45.2035 4.35529 45.0612 4.35529 44.5781V43.4109H8.82269V44.5202C8.82269 44.8466 8.76525 45.1602 8.3815 45.2021L7.37009 45.3172V46.3122H13.1769L13.1769 45.3172L12.1533 45.2021C11.9535 45.1744 11.7259 45.0182 11.7259 44.6053V40.837C11.7259 40.4521 11.8675 40.197 12.1663 40.1676L13.1769 40.0547V39.0738H7.37065V40.0397L8.38205 40.1668C8.72391 40.2097 8.82324 40.4799 8.82324 40.8362V41.9585H4.35585V40.8215C4.35585 40.3947 4.52678 40.1962 4.82507 40.1668L5.80678 40.0539V39.073H0.0141516L0.0141516 40.0539L0.982554 40.1668C1.36631 40.2097 1.46592 40.4946 1.45204 40.8648L1.45204 44.5335C1.45204 44.9464 1.33828 45.1879 0.968124 45.2304L0 45.3438L0 46.3122" fill="#CC0000"/>
<path d="M13.4638 42.6571C13.4638 40.3809 15.299 38.7888 19.3971 38.7888C23.468 38.7888 25.3046 40.3809 25.3046 42.6571C25.3046 44.9897 23.468 46.5674 19.3971 46.5674C15.299 46.5682 13.4638 44.9897 13.4638 42.6571ZM19.3838 40.1831C17.7328 40.1831 16.7935 40.7932 16.7935 42.6713C16.7935 44.5781 17.7328 45.1888 19.3838 45.1888C21.0348 45.1888 21.9735 44.5787 21.9735 42.6713C21.9735 40.7941 21.0345 40.1831 19.3838 40.1831Z" fill="#CC0000"/>
<path d="M25.627 46.313H30.265V45.3446L29.2689 45.2312C28.9839 45.2035 28.813 44.965 28.813 44.6339V40.951L32.67 46.0282C32.7968 46.1996 33.0387 46.313 33.2671 46.313H36.9093V40.8221C36.9093 40.5647 36.9775 40.212 37.3502 40.1673L38.3616 40.0544V39.0736H33.7238V40.0397L34.7347 40.1668C35.0915 40.2106 35.1756 40.509 35.1756 40.8504V44.435L31.348 39.3855C31.2057 39.2011 31.0215 39.073 30.7495 39.073L25.627 39.073V40.0539L26.5935 40.1668C26.935 40.2183 27.0627 40.3917 27.0627 40.8648V44.5335C27.0627 44.9678 26.9442 45.1774 26.5793 45.2304L25.627 45.3438V46.3122" fill="#CC0000"/>
</svg>
